# xmcd CD database file
# Copyright (C) 1997 Ti Kan
# 
# Track frame offsets:
#     182
#     18785
#     33370
#     50635
#     68017
#     86847
#     102407
#     117392
#     131370
#     147425
# 
# Disc length: 2213 seconds
# 
# Revision: 1
# Processed by: cddbd v1.4b41PL1 Copyright (c) Steve Scherf et al.
# Submitted via: DiscPlay 4.0.4
# 
DISCID=8708a30a
DTITLE=LACY J. DALTON - CRAZY LOVE
DYEAR=1900
DGENRE=
TTITLE0=FOREVER IN MY HEART
TTITLE1=CRAZY LOVE
TTITLE2=THE LOVELESS CAFE
TTITLE3=THE DEAL
TTITLE4=WALK AWAY
TTITLE5=RESTLESS
TTITLE6=LIGHTNIN' STRIKES A GOOD MAN
TTITLE7=RAINMAN
TTITLE8=LAY A LITTLE LOVE ON ME
TTITLE9=LITTLE BOY BLUE
EXTD=
EXTT0=
EXTT1=
EXTT2=
EXTT3=
EXTT4=
EXTT5=
EXTT6=
EXTT7=
EXTT8=
EXTT9=
PLAYORDER=
